<?xml version="1.0" encoding="UTF-8" standalone="no"?>
<!-- Creator: CorelDRAW -->

<svg
   xmlns:dc="http://purl.org/dc/elements/1.1/"
   xmlns:cc="http://creativecommons.org/ns#"
   xmlns:rdf="http://www.w3.org/1999/02/22-rdf-syntax-ns#"
   xmlns:svg="http://www.w3.org/2000/svg"
   xmlns="http://www.w3.org/2000/svg"
   xmlns:sodipodi="http://sodipodi.sourceforge.net/DTD/sodipodi-0.dtd"
   xmlns:inkscape="http://www.inkscape.org/namespaces/inkscape"
   xml:space="preserve"
   width="400px"
   height="400px"
   style="shape-rendering:geometricPrecision; text-rendering:geometricPrecision; image-rendering:optimizeQuality; fill-rule:evenodd"
   viewBox="0 0 400 400"
   id="svg2"
   version="1.1"
   inkscape:version="0.48.2 r9819"
   sodipodi:docname="meegoclock400.svg"
   inkscape:export-filename="C:\Users\Joao\Desktop\meegoclock400x.png"
   inkscape:export-xdpi="90"
   inkscape:export-ydpi="90"><metadata
   id="metadata153"><rdf:RDF><cc:Work
       rdf:about=""><dc:format>image/svg+xml</dc:format><dc:type
         rdf:resource="http://purl.org/dc/dcmitype/StillImage" /><dc:title></dc:title></cc:Work></rdf:RDF></metadata><sodipodi:namedview
   pagecolor="#ffffff"
   bordercolor="#666666"
   borderopacity="1"
   objecttolerance="10"
   gridtolerance="10"
   guidetolerance="10"
   inkscape:pageopacity="0"
   inkscape:pageshadow="2"
   inkscape:window-width="1366"
   inkscape:window-height="706"
   id="namedview151"
   showgrid="false"
   inkscape:zoom="0.834386"
   inkscape:cx="171.71646"
   inkscape:cy="182.92142"
   inkscape:window-x="-8"
   inkscape:window-y="-8"
   inkscape:window-maximized="1"
   inkscape:current-layer="svg2" />
 <defs
   id="defs4">
  <style
   type="text/css"
   id="style6">
   
    .str0 {stroke:#1F1A17}
    .fil50 {fill:none}
    .fil51 {fill:#FFFFFF}
    .fil2 {fill:#1B4454}
    .fil3 {fill:#1B4757}
    .fil1 {fill:#1C4052}
    .fil4 {fill:#1C4B5B}
    .fil5 {fill:#1C4F5E}
    .fil6 {fill:#1D5260}
    .fil7 {fill:#1F5663}
    .fil8 {fill:#215967}
    .fil9 {fill:#225D6A}
    .fil10 {fill:#25616E}
    .fil11 {fill:#276470}
    .fil12 {fill:#296874}
    .fil13 {fill:#2C6C78}
    .fil14 {fill:#2E717B}
    .fil15 {fill:#31747F}
    .fil16 {fill:#337882}
    .fil17 {fill:#367C85}
    .fil18 {fill:#398089}
    .fil19 {fill:#3C838D}
    .fil20 {fill:#3F8790}
    .fil21 {fill:#418B93}
    .fil22 {fill:#448F97}
    .fil23 {fill:#47939B}
    .fil24 {fill:#49969F}
    .fil25 {fill:#4C9AA2}
    .fil26 {fill:#4E9FA5}
    .fil27 {fill:#51A3A9}
    .fil28 {fill:#53A6AC}
    .fil29 {fill:#56A9AF}
    .fil30 {fill:#59ADB3}
    .fil31 {fill:#5CAFB5}
    .fil32 {fill:#5EB2B7}
    .fil33 {fill:#61B5BA}
    .fil34 {fill:#63B6BC}
    .fil35 {fill:#65B8BE}
    .fil36 {fill:#67BABF}
    .fil37 {fill:#68BBC0}
    .fil38 {fill:#6ABDC1}
    .fil39 {fill:#6BBEC2}
    .fil40 {fill:#6CBFC3}
    .fil41 {fill:#6DC0C3}
    .fil42 {fill:#6EC0C3}
    .fil43 {fill:#6FC0C4}
    .fil44 {fill:#6FC1C4}
    .fil46 {fill:#70C1C3}
    .fil45 {fill:#70C1C4}
    .fil47 {fill:#71C1C4}
    .fil48 {fill:#72C2C4}
    .fil49 {fill:#73C2C3}
    .fil0 {fill:url(#id1)}
   
  </style>
  <radialGradient
   id="id1"
   gradientUnits="userSpaceOnUse"
   cx="200"
   cy="200"
   r="191"
   fx="200"
   fy="200">
   <stop
   offset="0"
   style="stop-color:#0c93d7;stop-opacity:1;"
   id="stop9" />
   <stop
   offset="1"
   style="stop-color:#255976;stop-opacity:1;"
   id="stop11" />
  </radialGradient>
 
  
  
  
  
  
  
  
  
  
  
  
  
  
  
 </defs>
 <circle
   sodipodi:ry="191"
   sodipodi:rx="191"
   sodipodi:cy="200"
   sodipodi:cx="200"
   style="fill:url(#id1);fill-opacity:1.0"
   id="circle14"
   r="191"
   cy="200"
   cx="200"
   class="fil0" /><g
   id="g16">
   <defs
   id="defs18">
    <clipPath
   id="id0">
     <path
   inkscape:connector-curvature="0"
   id="path21"
   d="M 200,369 C 293,369 368,293 368,200 368,107 293,32 200,32 107,32 32,107 32,200 c 0,93 75,169 168,169 z" />
    </clipPath>
   </defs>
   <g
   clip-path="url(#id0)"
   id="g23">
    <path
   style="fill:#1c4052"
   inkscape:connector-curvature="0"
   id="path25"
   d="m 32,32 336,0 0,337 -336,0 0,-337 6,6 324,0 0,324 -324,0 0,-324 -6,-6 z"
   class="fil1" />
    <path
   style="fill:#1b4454"
   inkscape:connector-curvature="0"
   id="path27"
   d="m 35,35 330,0 0,330 -330,0 0,-330 7,7 316,0 0,316 -316,0 0,-316 -7,-7 z"
   class="fil2" />
    <path
   style="fill:#1b4757"
   inkscape:connector-curvature="0"
   id="path29"
   d="m 38,38 324,0 0,324 -324,0 0,-324 7,7 310,0 0,310 -310,0 0,-310 -7,-7 z"
   class="fil3" />
    <path
   style="fill:#1c4b5b"
   inkscape:connector-curvature="0"
   id="path31"
   d="m 42,42 316,0 0,316 -316,0 0,-316 6,6 304,0 0,304 -304,0 0,-304 -6,-6 z"
   class="fil4" />
    <path
   style="fill:#1c4f5e"
   inkscape:connector-curvature="0"
   id="path33"
   d="m 45,45 310,0 0,310 -310,0 0,-310 7,7 296,0 0,296 -296,0 0,-296 -7,-7 z"
   class="fil5" />
    <path
   style="fill:#1d5260"
   inkscape:connector-curvature="0"
   id="path35"
   d="m 48,48 304,0 0,304 -304,0 0,-304 7,7 290,0 0,290 -290,0 0,-290 -7,-7 z"
   class="fil6" />
    <path
   style="fill:#1f5663"
   inkscape:connector-curvature="0"
   id="path37"
   d="m 52,52 296,0 0,296 -296,0 0,-296 6,7 284,0 0,283 -284,0 0,-283 -6,-7 z"
   class="fil7" />
    <path
   style="fill:#215967"
   inkscape:connector-curvature="0"
   id="path39"
   d="m 55,55 290,0 0,290 -290,0 0,-290 7,7 276,0 0,276 -276,0 0,-276 -7,-7 z"
   class="fil8" />
    <path
   style="fill:#225d6a"
   inkscape:connector-curvature="0"
   id="path41"
   d="m 58,59 284,0 0,283 -284,0 0,-283 7,6 270,0 0,270 -270,0 0,-270 -7,-6 z"
   class="fil9" />
    <path
   style="fill:#25616e"
   inkscape:connector-curvature="0"
   id="path43"
   d="m 62,62 276,0 0,276 -276,0 0,-276 7,7 262,0 0,263 -262,0 0,-263 -7,-7 z"
   class="fil10" />
    <path
   style="fill:#276470"
   inkscape:connector-curvature="0"
   id="path45"
   d="m 65,65 270,0 0,270 -270,0 0,-270 7,7 256,0 0,256 -256,0 0,-256 -7,-7 z"
   class="fil11" />
    <path
   style="fill:#296874"
   inkscape:connector-curvature="0"
   id="path47"
   d="m 69,69 262,0 0,263 -262,0 0,-263 6,6 250,0 0,250 -250,0 0,-250 -6,-6 z"
   class="fil12" />
    <path
   style="fill:#2c6c78"
   inkscape:connector-curvature="0"
   id="path49"
   d="m 72,72 256,0 0,256 -256,0 0,-256 7,7 242,0 0,242 -242,0 0,-242 -7,-7 z"
   class="fil13" />
    <path
   style="fill:#2e717b"
   inkscape:connector-curvature="0"
   id="path51"
   d="m 75,75 250,0 0,250 -250,0 0,-250 7,7 236,0 0,236 -236,0 0,-236 -7,-7 z"
   class="fil14" />
    <path
   style="fill:#31747f"
   inkscape:connector-curvature="0"
   id="path53"
   d="m 79,79 242,0 0,242 -242,0 0,-242 6,7 230,0 0,229 -230,0 0,-229 -6,-7 z"
   class="fil15" />
    <path
   style="fill:#337882"
   inkscape:connector-curvature="0"
   id="path55"
   d="m 82,82 236,0 0,236 -236,0 0,-236 7,7 222,0 0,222 -222,0 0,-222 -7,-7 z"
   class="fil16" />
    <path
   style="fill:#367c85"
   inkscape:connector-curvature="0"
   id="path57"
   d="m 85,86 230,0 0,229 -230,0 0,-229 7,6 216,0 0,216 -216,0 0,-216 -7,-6 z"
   class="fil17" />
    <path
   style="fill:#398089"
   inkscape:connector-curvature="0"
   id="path59"
   d="m 89,89 222,0 0,222 -222,0 0,-222 7,7 208,0 0,209 -208,0 0,-209 -7,-7 z"
   class="fil18" />
    <path
   style="fill:#3c838d"
   inkscape:connector-curvature="0"
   id="path61"
   d="m 92,92 216,0 0,216 -216,0 0,-216 7,7 202,0 0,202 -202,0 0,-202 -7,-7 z"
   class="fil19" />
    <path
   style="fill:#3f8790"
   inkscape:connector-curvature="0"
   id="path63"
   d="m 96,96 208,0 0,209 -208,0 0,-209 6,6 196,0 0,196 -196,0 0,-196 -6,-6 z"
   class="fil20" />
    <path
   style="fill:#418b93"
   inkscape:connector-curvature="0"
   id="path65"
   d="m 99,99 202,0 0,202 -202,0 0,-202 7,7 188,0 0,188 -188,0 0,-188 -7,-7 z"
   class="fil21" />
    <path
   style="fill:#448f97"
   inkscape:connector-curvature="0"
   id="path67"
   d="m 102,102 196,0 0,196 -196,0 0,-196 7,7 182,0 0,182 -182,0 0,-182 -7,-7 z"
   class="fil22" />
    <path
   style="fill:#47939b"
   inkscape:connector-curvature="0"
   id="path69"
   d="m 106,106 188,0 0,188 -188,0 0,-188 6,6 176,0 0,176 -176,0 0,-176 -6,-6 z"
   class="fil23" />
    <path
   style="fill:#49969f"
   inkscape:connector-curvature="0"
   id="path71"
   d="m 109,109 182,0 0,182 -182,0 0,-182 7,7 168,0 0,168 -168,0 0,-168 -7,-7 z"
   class="fil24" />
    <path
   style="fill:#4c9aa2"
   inkscape:connector-curvature="0"
   id="path73"
   d="m 112,112 176,0 0,176 -176,0 0,-176 7,7 162,0 0,162 -162,0 0,-162 -7,-7 z"
   class="fil25" />
    <path
   style="fill:#4e9fa5"
   inkscape:connector-curvature="0"
   id="path75"
   d="m 116,116 168,0 0,168 -168,0 0,-168 7,7 155,0 0,155 -155,0 0,-155 -7,-7 z"
   class="fil26" />
    <path
   style="fill:#51a3a9"
   inkscape:connector-curvature="0"
   id="path77"
   d="m 119,119 162,0 0,162 -162,0 0,-162 7,7 148,0 0,148 -148,0 0,-148 -7,-7 z"
   class="fil27" />
    <path
   style="fill:#53a6ac"
   inkscape:connector-curvature="0"
   id="path79"
   d="m 123,123 155,0 0,155 -155,0 0,-155 6,6 142,0 0,142 -142,0 0,-142 -6,-6 z"
   class="fil28" />
    <path
   style="fill:#56a9af"
   inkscape:connector-curvature="0"
   id="path81"
   d="m 126,126 148,0 0,148 -148,0 0,-148 7,7 134,0 0,134 -134,0 0,-134 -7,-7 z"
   class="fil29" />
    <path
   style="fill:#59adb3"
   inkscape:connector-curvature="0"
   id="path83"
   d="m 129,129 142,0 0,142 -142,0 0,-142 7,7 128,0 0,128 -128,0 0,-128 -7,-7 z"
   class="fil30" />
    <path
   style="fill:#5cafb5"
   inkscape:connector-curvature="0"
   id="path85"
   d="m 133,133 134,0 0,134 -134,0 0,-134 6,6 122,0 0,122 -122,0 0,-122 -6,-6 z"
   class="fil31" />
    <path
   style="fill:#5eb2b7"
   inkscape:connector-curvature="0"
   id="path87"
   d="m 136,136 128,0 0,128 -128,0 0,-128 7,7 114,0 0,114 -114,0 0,-114 -7,-7 z"
   class="fil32" />
    <path
   style="fill:#61b5ba"
   inkscape:connector-curvature="0"
   id="path89"
   d="m 139,139 122,0 0,122 -122,0 0,-122 7,7 108,0 0,108 -108,0 0,-108 -7,-7 z"
   class="fil33" />
    <path
   style="fill:#63b6bc"
   inkscape:connector-curvature="0"
   id="path91"
   d="m 143,143 114,0 0,114 -114,0 0,-114 6,7 102,0 0,101 -102,0 0,-101 -6,-7 z"
   class="fil34" />
    <path
   style="fill:#65b8be"
   inkscape:connector-curvature="0"
   id="path93"
   d="m 146,146 108,0 0,108 -108,0 0,-108 7,7 94,0 0,94 -94,0 0,-94 -7,-7 z"
   class="fil35" />
    <path
   style="fill:#67babf"
   inkscape:connector-curvature="0"
   id="path95"
   d="m 149,150 102,0 0,101 -102,0 0,-101 7,6 88,0 0,88 -88,0 0,-88 -7,-6 z"
   class="fil36" />
    <path
   style="fill:#68bbc0"
   inkscape:connector-curvature="0"
   id="path97"
   d="m 153,153 94,0 0,94 -94,0 0,-94 7,7 80,0 0,81 -80,0 0,-81 -7,-7 z"
   class="fil37" />
    <path
   style="fill:#6abdc1"
   inkscape:connector-curvature="0"
   id="path99"
   d="m 156,156 88,0 0,88 -88,0 0,-88 7,7 74,0 0,74 -74,0 0,-74 -7,-7 z"
   class="fil38" />
    <path
   style="fill:#6bbec2"
   inkscape:connector-curvature="0"
   id="path101"
   d="m 160,160 80,0 0,81 -80,0 0,-81 6,6 68,0 0,68 -68,0 0,-68 -6,-6 z"
   class="fil39" />
    <path
   style="fill:#6cbfc3"
   inkscape:connector-curvature="0"
   id="path103"
   d="m 163,163 74,0 0,74 -74,0 0,-74 7,7 60,0 0,60 -60,0 0,-60 -7,-7 z"
   class="fil40" />
    <path
   style="fill:#6dc0c3"
   inkscape:connector-curvature="0"
   id="path105"
   d="m 166,166 68,0 0,68 -68,0 0,-68 7,7 54,0 0,54 -54,0 0,-54 -7,-7 z"
   class="fil41" />
    <path
   style="fill:#6ec0c3"
   inkscape:connector-curvature="0"
   id="path107"
   d="m 170,170 60,0 0,60 -60,0 0,-60 6,7 48,0 0,47 -48,0 0,-47 -6,-7 z"
   class="fil42" />
    <path
   style="fill:#6fc0c4"
   inkscape:connector-curvature="0"
   id="path109"
   d="m 173,173 54,0 0,54 -54,0 0,-54 7,7 40,0 0,40 -40,0 0,-40 -7,-7 z"
   class="fil43" />
    <path
   style="fill:#6fc1c4"
   inkscape:connector-curvature="0"
   id="path111"
   d="m 176,177 48,0 0,47 -48,0 0,-47 7,6 34,0 0,34 -34,0 0,-34 -7,-6 z"
   class="fil44" />
    <path
   style="fill:#70c1c4"
   inkscape:connector-curvature="0"
   id="path113"
   d="m 180,180 40,0 0,40 -40,0 0,-40 7,7 26,0 0,27 -26,0 0,-27 -7,-7 z"
   class="fil45" />
    <path
   style="fill:#70c1c3"
   inkscape:connector-curvature="0"
   id="path115"
   d="m 183,183 34,0 0,34 -34,0 0,-34 7,7 20,0 0,20 -20,0 0,-20 -7,-7 z"
   class="fil46" />
    <path
   style="fill:#71c1c4"
   inkscape:connector-curvature="0"
   id="path117"
   d="m 187,187 26,0 0,27 -26,0 0,-27 6,6 14,0 0,14 -14,0 0,-14 -6,-6 z"
   class="fil47" />
    <path
   style="fill:#72c2c4"
   inkscape:connector-curvature="0"
   id="path119"
   d="m 190,190 20,0 0,20 -20,0 0,-20 7,7 6,0 0,6 -6,0 0,-6 -7,-7 z"
   class="fil48" />
    <path
   style="fill:#72c2c4"
   inkscape:connector-curvature="0"
   id="path121"
   d="m 193,193 14,0 0,14 -14,0 0,-14 7,7 0,0 0,0 0,0 0,0 -7,-7 z"
   class="fil48" />
    <path
   style="fill:#73c2c3"
   inkscape:connector-curvature="0"
   id="path123"
   d="m 197,197 6,0 0,6 -6,0 0,-6 0,0 z"
   class="fil49" />
   </g>
   <path
   style="fill:none;stroke:#1f1a17"
   inkscape:connector-curvature="0"
   id="path125"
   d="M 200,369 C 293,369 368,293 368,200 368,107 293,32 200,32 107,32 32,107 32,200 c 0,93 75,169 168,169 z"
   class="fil50 str0" />
  </g><circle
   style="fill:#ffffff;stroke:#1f1a17"
   sodipodi:ry="7"
   sodipodi:rx="7"
   sodipodi:cy="48"
   sodipodi:cx="200"
   id="circle127"
   r="7"
   cy="48"
   cx="200"
   class="fil51 str0" /><path
   style="fill:#ffffff;stroke:#1f1a17"
   inkscape:connector-curvature="0"
   id="path129"
   d="m 121,62 c 3,-1 7,0 9,3 2,3 1,7 -3,9 -3,2 -7,1 -9,-2 -2,-4 -1,-8 3,-10 z"
   class="fil51 str0" /><path
   style="fill:#ffffff;stroke:#1f1a17"
   inkscape:connector-curvature="0"
   id="path131"
   d="m 63,121 c 1,-4 5,-5 9,-3 3,2 4,6 2,9 -2,3 -6,5 -9,3 -3,-2 -4,-6 -2,-9 z"
   class="fil51 str0" /><path
   style="fill:#ffffff;stroke:#1f1a17"
   inkscape:connector-curvature="0"
   id="path133"
   d="m 41,200 c 0,-4 3,-7 7,-7 4,0 7,3 7,7 0,4 -3,7 -7,7 -4,0 -7,-3 -7,-7 z"
   class="fil51 str0" /><path
   style="fill:#ffffff;stroke:#1f1a17"
   inkscape:connector-curvature="0"
   id="path135"
   d="m 62,279 c -1,-3 0,-7 3,-9 3,-2 7,-1 9,3 2,3 1,7 -2,9 -4,2 -8,1 -10,-3 z"
   class="fil51 str0" /><path
   style="fill:#ffffff;stroke:#1f1a17"
   inkscape:connector-curvature="0"
   id="path137"
   d="m 121,337 c -4,-1 -5,-5 -3,-9 2,-3 6,-4 9,-2 3,2 5,6 3,9 -2,3 -6,4 -9,2 z"
   class="fil51 str0" /><path
   style="fill:#ffffff;stroke:#1f1a17"
   inkscape:connector-curvature="0"
   id="path139"
   d="m 200,359 c -4,0 -7,-3 -7,-7 0,-4 3,-7 7,-7 4,0 7,3 7,7 0,4 -3,7 -7,7 z"
   class="fil51 str0" /><path
   style="fill:#ffffff;stroke:#1f1a17"
   inkscape:connector-curvature="0"
   id="path141"
   d="m 279,338 c -3,1 -7,0 -9,-3 -2,-3 -1,-7 3,-9 3,-2 7,-1 9,2 2,4 1,8 -3,10 z"
   class="fil51 str0" /><path
   style="fill:#ffffff;stroke:#1f1a17"
   inkscape:connector-curvature="0"
   id="path143"
   d="m 337,279 c -1,4 -5,5 -9,3 -3,-2 -4,-6 -2,-9 2,-3 6,-5 9,-3 3,2 4,6 2,9 z"
   class="fil51 str0" /><path
   style="fill:#ffffff;stroke:#1f1a17"
   inkscape:connector-curvature="0"
   id="path145"
   d="m 359,200 c 0,4 -3,7 -7,7 -4,0 -7,-3 -7,-7 0,-4 3,-7 7,-7 4,0 7,3 7,7 z"
   class="fil51 str0" /><path
   style="fill:#ffffff;stroke:#1f1a17"
   inkscape:connector-curvature="0"
   id="path147"
   d="m 338,121 c 1,3 0,7 -3,9 -3,2 -7,1 -9,-3 -2,-3 -1,-7 2,-9 4,-2 8,-1 10,3 z"
   class="fil51 str0" /><path
   style="fill:#ffffff;stroke:#1f1a17"
   inkscape:connector-curvature="0"
   id="path149"
   d="m 279,63 c 4,1 5,5 3,9 -2,3 -6,4 -9,2 -3,-2 -5,-6 -3,-9 2,-3 6,-4 9,-2 z"
   class="fil51 str0" />
</svg>